<?xml version="1.0" encoding="UTF-8" standalone="no"?>
<svg width="28px" height="27px" viewBox="0 0 28 27" version="1.1" xmlns="http://www.w3.org/2000/svg" xmlns:xlink="http://www.w3.org/1999/xlink" xmlns:sketch="http://www.bohemiancoding.com/sketch/ns">
    <!-- Generator: Sketch 3.5.2 (25235) - http://www.bohemiancoding.com/sketch -->
    <title>Menubar - Spotlight</title>
    <desc>Created with Sketch.</desc>
    <defs></defs>
    <g id="UI-Kit" stroke="none" stroke-width="1" fill="none" fill-rule="evenodd" sketch:type="MSPage">
        <g id="Artboard" sketch:type="MSArtboardGroup" transform="translate(-2739.000000, -10.000000)" fill="#000000">
            <g id="Menubar" sketch:type="MSLayerGroup">
                <g id="Menubar---Spotlight" transform="translate(2739.000000, 10.000000)" sketch:type="MSShapeGroup">
                    <path d="M16.599262,17.5134756 L26.0961941,27.0104076 L27.5104076,25.5961941 L17.9634853,16.0492717 C19.2413828,14.3695904 20,12.2733875 20,10 C20,4.4771525 15.5228475,0 10,0 C4.4771525,0 0,4.4771525 0,10 C0,15.5228475 4.4771525,20 10,20 C12.5287862,20 14.8383407,19.061358 16.599262,17.5134756 Z M10,18 C14.418278,18 18,14.418278 18,10 C18,5.581722 14.418278,2 10,2 C5.581722,2 2,5.581722 2,10 C2,14.418278 5.581722,18 10,18 Z" id="Icon---Spotlight"></path>
                </g>
            </g>
        </g>
    </g>
</svg>