<?xml version="1.0" encoding="UTF-8" standalone="no"?>
<svg width="42px" height="29px" viewBox="0 0 42 29" version="1.1" xmlns="http://www.w3.org/2000/svg" xmlns:xlink="http://www.w3.org/1999/xlink" xmlns:sketch="http://www.bohemiancoding.com/sketch/ns">
    <!-- Generator: Sketch 3.5.2 (25235) - http://www.bohemiancoding.com/sketch -->
    <title>Icon - WiFi</title>
    <desc>Created with Sketch.</desc>
    <defs></defs>
    <g id="UI-Kit" stroke="none" stroke-width="1" fill="none" fill-rule="evenodd" sketch:type="MSPage">
        <g id="Artboard" sketch:type="MSArtboardGroup" transform="translate(-2508.000000, -8.000000)" fill="#000000">
            <g id="Menubar" sketch:type="MSLayerGroup">
                <g id="Menubar---WiFi" transform="translate(2479.000000, 8.000000)" sketch:type="MSShapeGroup">
                    <path d="M29.630955,9.41775159 C33.8708539,3.76229455 41.4081883,0 50,0 C58.5918117,0 66.1291461,3.76229455 70.369045,9.41775159 L68.9441994,10.8425972 C65.1136737,5.54930658 58.0634388,2 50,2 C41.9365612,2 34.8863263,5.54930658 31.0558006,10.8425972 L29.630955,9.41775159 Z M41.8606299,21.6474265 C44.2295216,19.9682139 47.0168722,19 50,19 C52.9831278,19 55.7704784,19.9682139 58.1393701,21.6474265 L59.4301525,20.3566441 C56.7316937,18.2362333 53.4885604,17 50,17 C46.5114396,17 43.2683063,18.2362333 40.5698475,20.3566441 L41.8606299,21.6474265 Z M36.4384557,16.2252523 C39.9179765,12.9954214 44.7097779,11 50,11 C55.2902221,11 60.0820235,12.9954214 63.5615443,16.2252523 L64.8900047,14.8967918 C61.086576,11.2546345 55.819752,9 50,9 C44.180248,9 38.913424,11.2546345 35.1099953,14.8967918 L36.4384557,16.2252523 Z M47,26.7867966 L47,26 L48,25 L52,25 L53,26 L53,26.7867966 L50.7867966,29 L49.2132034,29 L47,26.7867966 Z" id="Icon---WiFi"></path>
                </g>
            </g>
        </g>
    </g>
</svg>