<?xml version="1.0" encoding="UTF-8" standalone="no"?>
<svg width="28px" height="32px" viewBox="0 0 28 32" version="1.1" xmlns="http://www.w3.org/2000/svg" xmlns:xlink="http://www.w3.org/1999/xlink" xmlns:sketch="http://www.bohemiancoding.com/sketch/ns">
    <!-- Generator: Sketch 3.5.2 (25235) - http://www.bohemiancoding.com/sketch -->
    <title></title>
    <desc>Created with Sketch.</desc>
    <defs></defs>
    <g id="UI-Kit" stroke="none" stroke-width="1" fill="none" fill-rule="evenodd" sketch:type="MSPage">
        <g id="Artboard" sketch:type="MSArtboardGroup" transform="translate(-41.000000, -4.000000)" fill="#000000">
            <g id="Menubar" sketch:type="MSLayerGroup">
                <path d="M55.504,12.656 C55.0986646,12.656 54.2246734,12.4660019 52.882,12.086 C51.5646601,11.7059981 50.437338,11.516 49.5,11.516 C47.3213224,11.516 45.5100072,12.4279909 44.066,14.252 C42.6473262,16.1013426 41.938,18.4699856 41.938,21.358 C41.938,24.499349 42.875324,27.6913171 44.75,30.934 C46.624676,34.2020163 48.524657,35.836 50.45,35.836 C51.058003,35.836 51.8939947,35.6206688 52.958,35.19 C53.9460049,34.7846646 54.8579958,34.582 55.694,34.582 C56.5046707,34.582 57.4546612,34.7719981 58.544,35.152 C59.6586722,35.5573354 60.5579966,35.76 61.242,35.76 C62.8886749,35.76 64.5226586,34.5313456 66.144,32.074 C66.6760027,31.2633293 67.1319981,30.459004 67.512,29.661 C67.8920019,28.862996 68.2086654,28.0840038 68.462,27.324 C67.3219943,26.9693316 66.3213376,26.1713395 65.46,24.93 C64.5733289,23.663327 64.13,22.2446745 64.13,20.674 C64.13,19.2299928 64.5479958,17.9253392 65.384,16.76 C65.8400023,16.10133 66.5619951,15.3413376 67.55,14.48 C67.220665,14.0746646 66.891335,13.7200015 66.562,13.416 C66.232665,13.1119985 65.903335,12.8333346 65.574,12.58 C64.3833274,11.7693293 63.0280076,11.364 61.508,11.364 C60.5959954,11.364 59.4940065,11.5793312 58.202,12.01 C56.9099935,12.4406688 56.0106692,12.656 55.504,12.656 Z M61.318,4.98 C61.318,4.87866616 61.3116667,4.7646673 61.299,4.638 C61.2863333,4.5113327 61.2546669,4.35933422 61.204,4.182 C58.9746555,4.6886692 57.3850047,5.63232643 56.435,7.013 C55.4849952,8.39367357 54.9973335,10.021324 54.972,11.896 C55.7826707,11.8199996 56.4286643,11.7186673 56.91,11.592 C57.56867,11.3639989 58.2653297,10.9080034 59,10.224 C59.7853373,9.41332928 60.3679981,8.53933802 60.748,7.602 C61.1280019,6.66466198 61.318,5.79067072 61.318,4.98 Z" id="" sketch:type="MSShapeGroup"></path>
            </g>
        </g>
    </g>
</svg>